PathFileType	4	(X/Y/Z)	D:\TRACE\v60_Jaco2_6-2-23\JustBodyDRS_Motion3_7-platform.trc
DataRate	CameraRate	NumFrames	NumMarkers	Units	OrigDataRate	OrigDataStartFrame	OrigNumFrames
100.00	100.00	      24	5	mm	100.00	2626	      7000
Frame#	Time	Left_Front			Right_Front			Left_Aft			Right_Aft			Post			
		X1	Y1	Z1	X2	Y2	Z2	X3	Y3	Z3	X4	Y4	Z4	X5	Y5	Z5	

2626	26.250	-777.92865	87.40862	-627.43591	792.82135	85.65041	-604.54279	-709.12006	-44.26755	498.87744	705.49188	-56.45053	603.68829	15.91389	1413.88892	-784.78925	
2627	26.260	-778.17297	87.83447	-627.29681	792.56335	86.06336	-604.38202	-709.19714	-44.84581	499.07550	705.30731	-56.86392	603.84216	15.76778	1414.17651	-784.01770	
2628	26.270	-778.24872	88.30785	-627.22876	792.48639	86.37195	-604.13861	-709.63770	-44.47179	498.88730	704.82898	-57.37537	603.95441	15.79599	1414.52344	-782.96204	
2629	26.280	-778.34015	88.66412	-627.22717	792.32513	86.64417	-604.12128	-709.73151	-44.64681	498.93335	704.70093	-57.72506	603.95099	15.41607	1414.96582	-781.88159	
2630	26.290	-778.50153	89.30730	-627.21313	792.24768	86.97895	-604.09760	-709.81207	-44.78445	498.95020	704.86414	-57.94791	603.95789	15.71026	1415.14160	-781.19128	
2631	26.300	-778.75671	89.68025	-627.24756	792.05939	87.24185	-604.01422	-709.95679	-44.99330	499.02039	704.77252	-58.10804	603.96222	15.38797	1415.61389	-780.22601	
2632	26.310	-778.56000	89.80391	-626.74872	791.88477	87.36839	-603.89264	-710.06421	-45.13706	499.04150	704.62958	-58.21539	604.01849	14.85919	1415.79517	-779.46692	
2633	26.320	-778.56580	89.93586	-626.61481	791.68378	87.63667	-603.79736	-710.19061	-45.37330	499.08368	704.63055	-58.30470	604.11530	14.66877	1416.25244	-778.71112	
2634	26.330	-778.66418	90.12366	-626.49139	791.64032	87.91937	-603.70178	-710.34955	-45.49156	499.09836	704.56494	-58.41254	604.17023	14.56791	1416.75513	-778.21436	
2635	26.340	-778.78314	90.38334	-626.48975	791.49506	88.12413	-603.66803	-710.45532	-45.64984	499.08823	704.49280	-58.60842	604.18896	14.59483	1416.94116	-777.86926	
2636	26.350	-778.94647	90.53455	-626.47040	791.40472	88.33871	-603.60254	-710.42773	-46.01123	499.29047	704.43127	-58.75869	604.21570	14.64757	1417.24463	-777.69562	
2637	26.360	-778.96619	90.59214	-626.39380	791.30206	88.52204	-603.59375	-710.62280	-46.17096	499.36823	704.25507	-58.98472	604.22620	14.72390	1417.46399	-777.52942	
2638	26.370	-779.10248	90.72805	-626.15558	791.27679	88.69302	-603.55261	-710.67169	-46.36238	499.54929	704.08917	-59.29213	604.29883	14.72303	1417.66882	-777.25287	
2639	26.380	-779.16858	90.89648	-626.12073	791.18408	88.84911	-603.48926	-710.69958	-46.45897	499.62677	703.94556	-59.48837	604.23322	14.65560	1418.00281	-776.71472	
2640	26.390	-779.16467	90.92248	-626.27814	791.19733	89.10123	-603.39514	-710.68726	-46.54141	499.60406	703.88428	-59.70942	604.25012	14.46292	1418.15479	-776.44336	
2641	26.400	-779.25836	91.03785	-626.24426	791.14429	89.27358	-603.34357	-710.72699	-46.61720	499.63751	703.80109	-59.86056	604.19971	14.22297	1418.29089	-775.89478	
2642	26.410	-779.39789	91.16840	-626.21240	791.06226	89.33546	-603.30688	-710.72449	-46.72590	499.67233	703.72266	-59.97286	604.19220	14.11011	1418.45752	-775.47766	
2643	26.420	-779.42834	91.29948	-626.15588	790.93304	89.36628	-603.26965	-710.74774	-46.83174	499.65515	703.64966	-60.10955	604.21875	14.16767	1418.49512	-775.03217	
2644	26.430	-779.49188	91.44734	-626.10626	790.90015	89.51588	-603.20380	-710.79395	-46.84858	499.66446	703.54608	-60.12221	604.22522	14.15140	1418.52771	-774.76727	
2645	26.440	-779.56281	91.48730	-626.14893	790.84174	89.65668	-603.25897	-710.83148	-46.86961	499.66748	703.48938	-60.17012	604.22095	14.07535	1418.59424	-774.52704	
2646	26.450	-779.60590	91.41729	-626.18433	790.87030	89.62460	-603.23383	-710.81885	-46.93910	499.66895	703.50726	-60.20216	604.24829	14.05540	1418.70239	-774.42804	
2647	26.460	-779.63800	91.43121	-626.14301	790.80499	89.39059	-603.20862	-710.80634	-47.08050	499.65088	703.44098	-60.21154	604.28949	14.05745	1418.74426	-774.37628	
2648	26.470	-779.73053	91.42890	-626.14417	790.78345	89.40640	-603.18829	-710.86511	-47.12009	499.66171	703.43842	-60.27379	604.27869	14.01609	1418.68738	-774.38763	
2649	26.480	-779.74017	91.51598	-626.12225	790.71686	89.62853	-603.15912	-710.94281	-47.13214	499.70047	703.40875	-60.28367	604.34033	14.09150	1418.71680	-774.41901	
